<svg width="46" height="35" viewBox="0 0 46 35" fill="none" xmlns="http://www.w3.org/2000/svg">
<g clip-path="url(#clip0_17_42)">
<path d="M1.85937 34.3069H1.32812L14.5651 3.25742L15.052 3.03563L26.2082 34.3069H22.4452L18.9921 24.5485H6.06509L1.85937 34.3069ZM13.1927 8.04792L6.24217 24.1049H18.8593L13.1927 8.04792ZM20.5447 34.3069H20.0135L33.2504 3.25742L33.7374 3.03563L44.8936 34.3069H41.1306L37.6775 24.5485H24.7504L20.5447 34.3069ZM31.878 8.04792L24.9275 24.1049H37.5447L31.878 8.04792ZM42.0191 5.56396L41.4879 5.69702L41.3993 5.56396C42.0485 5.38653 42.5798 5.04648 42.9931 4.54376C43.4358 4.04104 43.6571 3.44963 43.6571 2.7695C43.6571 1.67537 43.2438 1.12831 42.4175 1.12831C41.7092 1.12831 40.9417 1.30574 40.1155 1.66059L40.0269 1.52752C40.8532 1.17267 41.6798 0.995239 42.5061 0.995239C44.2475 0.995239 45.118 1.60145 45.118 2.81386C45.118 3.99668 44.2178 4.86905 42.4175 5.43089C44.1292 5.60831 44.9852 6.36237 44.9852 7.69306C44.9852 8.78718 44.4246 9.74826 43.303 10.5762C42.1813 11.3746 41.0009 11.8921 39.7613 12.1287L39.717 11.9513C40.6616 11.7147 41.5173 11.1972 42.2847 10.3988C43.0816 9.57083 43.48 8.74282 43.48 7.91485C43.48 7.05728 43.3324 6.46588 43.0373 6.14059C42.7423 5.78574 42.4027 5.59351 42.0191 5.56396Z" fill="black"/>
<mask id="mask0_17_42" style="mask-type:luminance" maskUnits="userSpaceOnUse" x="0" y="0" width="46" height="35">
<path d="M46 0H0V35H46V0Z" fill="white"/>
<path d="M1.85937 34.3069H1.32812L14.5651 3.25742L15.052 3.03563L26.2082 34.3069H22.4452L18.9921 24.5485H6.06509L1.85937 34.3069ZM13.1927 8.04792L6.24217 24.1049H18.8593L13.1927 8.04792ZM20.5447 34.3069H20.0135L33.2504 3.25742L33.7374 3.03563L44.8936 34.3069H41.1306L37.6775 24.5485H24.7504L20.5447 34.3069ZM31.878 8.04792L24.9275 24.1049H37.5447L31.878 8.04792ZM42.0191 5.56396L41.4879 5.69702L41.3993 5.56396C42.0485 5.38653 42.5798 5.04648 42.9931 4.54376C43.4358 4.04104 43.6571 3.44963 43.6571 2.7695C43.6571 1.67537 43.2438 1.12831 42.4175 1.12831C41.7092 1.12831 40.9417 1.30574 40.1155 1.66059L40.0269 1.52752C40.8532 1.17267 41.6798 0.995239 42.5061 0.995239C44.2475 0.995239 45.118 1.60145 45.118 2.81386C45.118 3.99668 44.2178 4.86905 42.4175 5.43089C44.1292 5.60831 44.9852 6.36237 44.9852 7.69306C44.9852 8.78718 44.4246 9.74826 43.303 10.5762C42.1813 11.3746 41.0009 11.8921 39.7613 12.1287L39.717 11.9513C40.6616 11.7147 41.5173 11.1972 42.2847 10.3988C43.0816 9.57083 43.48 8.74282 43.48 7.91485C43.48 7.05728 43.3324 6.46588 43.0373 6.14059C42.7423 5.78574 42.4027 5.59351 42.0191 5.56396Z" fill="black"/>
</mask>
<g mask="url(#mask0_17_42)">
<path d="M1.85936 34.3069V35H2.31413L2.49441 34.5817L1.85936 34.3069ZM1.32811 34.3069L0.691986 34.0347L0.280457 35H1.32811V34.3069ZM14.565 3.25743L14.2788 2.62649L14.0344 2.7378L13.9289 2.98519L14.565 3.25743ZM15.052 3.03565L15.7034 2.80237L15.4503 2.09295L14.7658 2.4047L15.052 3.03565ZM26.2082 34.3069V35H27.1901L26.8596 34.0737L26.2082 34.3069ZM22.4452 34.3069L21.7933 34.5385L21.9566 35H22.4452V34.3069ZM18.9921 24.5485L19.6441 24.3169L19.4808 23.8555H18.9921V24.5485ZM6.06508 24.5485V23.8555H5.6103L5.43003 24.2738L6.06508 24.5485ZM13.1927 8.04793L13.8448 7.8169L13.2582 6.15464L12.558 7.77216L13.1927 8.04793ZM6.24216 24.105L5.60753 23.8292L5.18817 24.798H6.24216V24.105ZM18.8593 24.105V24.798H19.8376L19.5115 23.8739L18.8593 24.105ZM1.85936 34.3069V33.6139H1.32811V34.3069V35H1.85936V34.3069ZM1.32811 34.3069L1.96424 34.5792L15.2012 3.52967L14.565 3.25743L13.9289 2.98519L0.691986 34.0347L1.32811 34.3069ZM14.565 3.25743L14.8513 3.88837L15.3383 3.66659L15.052 3.03565L14.7658 2.4047L14.2788 2.62649L14.565 3.25743ZM15.052 3.03565L14.4007 3.26893L25.5569 34.5402L26.2082 34.3069L26.8596 34.0737L15.7034 2.80237L15.052 3.03565ZM26.2082 34.3069V33.6139H22.4452V34.3069V35H26.2082V34.3069ZM22.4452 34.3069L23.0972 34.0754L19.6441 24.3169L18.9921 24.5485L18.3402 24.7801L21.7933 34.5385L22.4452 34.3069ZM18.9921 24.5485V23.8555H6.06508V24.5485V25.2416H18.9921V24.5485ZM6.06508 24.5485L5.43003 24.2738L1.22431 34.0322L1.85936 34.3069L2.49441 34.5817L6.70012 24.8233L6.06508 24.5485ZM13.1927 8.04793L12.558 7.77216L5.60753 23.8292L6.24216 24.105L6.87679 24.3807L13.8273 8.3237L13.1927 8.04793ZM6.24216 24.105V24.798H18.8593V24.105V23.4119H6.24216V24.105ZM18.8593 24.105L19.5115 23.8739L13.8448 7.8169L13.1927 8.04793L12.5405 8.27896L18.2071 24.336L18.8593 24.105ZM20.5447 34.3069V35H20.9995L21.1797 34.5817L20.5447 34.3069ZM20.0135 34.3069L19.3773 34.0347L18.9658 35H20.0135V34.3069ZM33.2504 3.25743L32.9641 2.62649L32.7197 2.7378L32.6143 2.98519L33.2504 3.25743ZM33.7374 3.03565L34.3887 2.80237L34.1357 2.09295L33.4511 2.4047L33.7374 3.03565ZM44.8936 34.3069V35H45.8755L45.5448 34.0737L44.8936 34.3069ZM41.1306 34.3069L40.4786 34.5385L40.6419 35H41.1306V34.3069ZM37.6774 24.5485L38.3294 24.3169L38.1662 23.8555H37.6774V24.5485ZM24.7504 24.5485V23.8555H24.2956L24.1154 24.2738L24.7504 24.5485ZM31.878 8.04793L32.5302 7.8169L31.9435 6.15464L31.2434 7.77216L31.878 8.04793ZM24.9275 24.105L24.2929 23.8292L23.8735 24.798H24.9275V24.105ZM37.5446 24.105V24.798H38.5231L38.1969 23.8739L37.5446 24.105ZM20.5447 34.3069V33.6139H20.0135V34.3069V35H20.5447V34.3069ZM20.0135 34.3069L20.6496 34.5792L33.8865 3.52967L33.2504 3.25743L32.6143 2.98519L19.3773 34.0347L20.0135 34.3069ZM33.2504 3.25743L33.5366 3.88837L34.0236 3.66659L33.7374 3.03565L33.4511 2.4047L32.9641 2.62649L33.2504 3.25743ZM33.7374 3.03565L33.086 3.26893L44.2423 34.5402L44.8936 34.3069L45.5448 34.0737L34.3887 2.80237L33.7374 3.03565ZM44.8936 34.3069V33.6139H41.1306V34.3069V35H44.8936V34.3069ZM41.1306 34.3069L41.7825 34.0754L38.3294 24.3169L37.6774 24.5485L37.0255 24.7801L40.4786 34.5385L41.1306 34.3069ZM37.6774 24.5485V23.8555H24.7504V24.5485V25.2416H37.6774V24.5485ZM24.7504 24.5485L24.1154 24.2738L19.9097 34.0322L20.5447 34.3069L21.1797 34.5817L25.3855 24.8233L24.7504 24.5485ZM31.878 8.04793L31.2434 7.77216L24.2929 23.8292L24.9275 24.105L25.5621 24.3807L32.5126 8.3237L31.878 8.04793ZM24.9275 24.105V24.798H37.5446V24.105V23.4119H24.9275V24.105ZM37.5446 24.105L38.1969 23.8739L32.5302 7.8169L31.878 8.04793L31.2258 8.27896L36.8923 24.336L37.5446 24.105ZM42.0191 5.56397L42.072 4.87294L41.9603 4.86432L41.8513 4.89159L42.0191 5.56397ZM41.4878 5.69704L40.9123 6.08148L41.1828 6.48786L41.6556 6.36942L41.4878 5.69704ZM41.3993 5.56397L41.2174 4.89533L40.2915 5.14834L40.8238 5.94841L41.3993 5.56397ZM42.993 4.54377L42.4742 4.08524L42.4666 4.09407L42.459 4.10319L42.993 4.54377ZM40.1155 1.6606L39.5399 2.04505L39.8592 2.52473L40.388 2.29763L40.1155 1.6606ZM40.0269 1.52753L39.7544 0.890502L38.99 1.21872L39.4514 1.91198L40.0269 1.52753ZM42.4175 5.4309L42.2117 4.76919L42.3463 6.1203L42.4175 5.4309ZM43.3029 10.5762L43.7034 11.1412L43.7083 11.1378L43.7131 11.1342L43.3029 10.5762ZM39.7613 12.1287L39.0903 12.2968L39.2487 12.9321L39.8906 12.8096L39.7613 12.1287ZM39.717 11.9513L39.5493 11.2789L38.8783 11.447L39.046 12.1194L39.717 11.9513ZM42.2847 10.3988L41.7867 9.91773L41.7863 9.91807L42.2847 10.3988ZM43.0373 6.1406L42.5061 6.58431L42.5154 6.59578L42.5254 6.6068L43.0373 6.1406ZM42.0191 5.56397L41.8513 4.89159L41.3201 5.02466L41.4878 5.69704L41.6556 6.36942L42.1868 6.23635L42.0191 5.56397ZM41.4878 5.69704L42.0634 5.31259L41.9748 5.17952L41.3993 5.56397L40.8238 5.94841L40.9123 6.08148L41.4878 5.69704ZM41.3993 5.56397L41.5812 6.23261C42.3636 6.0189 43.0193 5.60185 43.5271 4.98436L42.993 4.54377L42.459 4.10319C42.1401 4.49113 41.7337 4.75419 41.2174 4.89533L41.3993 5.56397ZM42.993 4.54377L43.5118 5.00231C44.0676 4.37099 44.3488 3.61582 44.3488 2.76951H43.6571H42.9654C42.9654 3.28347 42.8039 3.71115 42.4742 4.08524L42.993 4.54377ZM43.6571 2.76951H44.3488C44.3488 2.15483 44.2361 1.56714 43.8989 1.12039C43.534 0.637217 42.9972 0.435256 42.4175 0.435256V1.12833V1.8214C42.6641 1.8214 42.7475 1.89296 42.7956 1.95685C42.8713 2.05717 42.9654 2.29007 42.9654 2.76951H43.6571ZM42.4175 1.12833V0.435256C41.594 0.435256 40.7332 0.64133 39.8429 1.02357L40.1155 1.6606L40.388 2.29763C41.1506 1.97017 41.8244 1.8214 42.4175 1.8214V1.12833ZM40.1155 1.6606L40.691 1.27615L40.6024 1.14308L40.0269 1.52753L39.4514 1.91198L39.5399 2.04505L40.1155 1.6606ZM40.0269 1.52753L40.2994 2.16456C41.0472 1.8434 41.7815 1.68832 42.5061 1.68832V0.995253V0.302185C41.5781 0.302185 40.6591 0.501957 39.7544 0.890502L40.0269 1.52753ZM42.5061 0.995253V1.68832C43.3178 1.68832 43.8037 1.83351 44.0704 2.01905C44.2911 2.17277 44.4263 2.39752 44.4263 2.81387H45.118H45.8098C45.8098 2.01781 45.5096 1.33325 44.8597 0.880768C44.2555 0.4601 43.4354 0.302185 42.5061 0.302185V0.995253ZM45.118 2.81387H44.4263C44.4263 3.2051 44.2866 3.54263 43.9622 3.85708C43.6191 4.18947 43.0563 4.50558 42.2117 4.76919L42.4175 5.4309L42.6233 6.09261C43.5789 5.79438 44.3668 5.39337 44.9237 4.85343C45.4995 4.29555 45.8098 3.60549 45.8098 2.81387H45.118ZM42.4175 5.4309L42.3463 6.1203C43.1279 6.20132 43.6087 6.40529 43.8864 6.64997C44.1399 6.87321 44.2935 7.19067 44.2935 7.69308H44.9852H45.677C45.677 6.86479 45.4027 6.13987 44.8002 5.60905C44.2219 5.09968 43.4188 4.83791 42.4888 4.7415L42.4175 5.4309ZM44.9852 7.69308H44.2935C44.2935 8.50754 43.8913 9.28114 42.8927 10.0183L43.3029 10.5762L43.7131 11.1342C44.9579 10.2154 45.677 9.06685 45.677 7.69308H44.9852ZM43.3029 10.5762L42.9024 10.0113C41.8545 10.7573 40.7653 11.2316 39.6319 11.4479L39.7613 12.1287L39.8906 12.8096C41.2364 12.5527 42.5085 11.992 43.7034 11.1412L43.3029 10.5762ZM39.7613 12.1287L40.4323 11.9606L40.388 11.7832L39.717 11.9513L39.046 12.1194L39.0903 12.2968L39.7613 12.1287ZM39.717 11.9513L39.8848 12.6237C40.9718 12.3514 41.9382 11.7586 42.7831 10.8796L42.2847 10.3988L41.7863 9.91807C41.0967 10.6359 40.3513 11.078 39.5493 11.2789L39.717 11.9513ZM42.2847 10.3988L42.7828 10.8799C43.655 9.97362 44.1717 8.98236 44.1717 7.91486H43.48H42.7883C42.7883 8.50335 42.5081 9.16803 41.7867 9.91773L42.2847 10.3988ZM43.48 7.91486H44.1717C44.1717 7.027 44.0289 6.20333 43.5492 5.67441L43.0373 6.1406L42.5254 6.6068C42.6358 6.72843 42.7883 7.08758 42.7883 7.91486H43.48ZM43.0373 6.1406L43.5686 5.6969C43.1795 5.2289 42.6783 4.91966 42.072 4.87294L42.0191 5.56397L41.9662 6.25499C42.1273 6.26743 42.3048 6.3426 42.5061 6.58431L43.0373 6.1406Z" fill="white"/>
</g>
</g>
<defs>
<clipPath id="clip0_17_42">
<rect width="46" height="35" fill="white"/>
</clipPath>
</defs>
</svg>
