<svg width="132" height="79" viewBox="0 0 132 79" fill="none" xmlns="http://www.w3.org/2000/svg">
<mask id="mask0_6_4" style="mask-type:luminance" maskUnits="userSpaceOnUse" x="0" y="10" width="132" height="42">
<path d="M0.651749 10.0053H131.332V51.5338H0.651749V10.0053Z" fill="white"/>
</mask>
<g mask="url(#mask0_6_4)">
<path fill-rule="evenodd" clip-rule="evenodd" d="M66.0069 51.5735C64.537 51.5735 63.1152 51.0482 61.9987 50.0964C60.819 49.0897 60.1549 47.7565 59.6599 46.5866C58.1171 42.9329 57.3361 38.9623 57.3361 34.7846C57.3361 28.0134 59.4385 21.6577 63.162 17.0137C60.8066 15.0854 58.146 14.0759 55.3726 14.0759C52.5979 14.0759 49.9359 15.0854 47.5832 17.0137C51.3054 21.6577 53.4077 28.0134 53.4077 34.7846C53.4077 38.8882 52.6419 42.8245 51.1321 46.4865C50.6385 47.6838 49.9716 49.0458 48.7795 50.0731C47.6561 51.0386 46.2206 51.5708 44.7397 51.5708C44.7315 51.5708 44.7232 51.5708 44.715 51.5708C43.2245 51.5653 41.7849 51.0221 40.6629 50.0429C39.5216 49.0444 38.8754 47.7428 38.3927 46.6031C36.872 43.0042 36.0676 38.9184 36.0676 34.786C36.0676 28.0161 38.17 21.6591 41.8935 17.0151C39.5395 15.0868 36.8775 14.0787 34.1041 14.0787C30.1469 14.0787 26.3917 16.1565 23.5276 19.9324C20.5329 23.8769 18.8842 29.1518 18.8842 34.786C18.8842 35.9107 17.9699 36.8227 16.8424 36.8227H2.69362C1.5675 36.8227 0.651749 35.9107 0.651749 34.786C0.651749 33.6614 1.5675 32.7479 2.69362 32.7479H14.8637C15.2254 26.9971 17.1132 21.6331 20.2689 17.4732C22.0261 15.1594 24.0845 13.3339 26.3904 12.0502C28.8269 10.6924 31.4201 10.0039 34.1041 10.0039C36.366 10.0039 38.5811 10.4976 40.6876 11.4728C42.1176 12.1352 43.4747 13.0075 44.7397 14.0787C46.0034 13.0075 47.3605 12.1352 48.7919 11.4728C50.8984 10.499 53.1121 10.0039 55.374 10.0039C57.6359 10.0039 59.8496 10.4976 61.9561 11.4728C63.3861 12.1352 64.7432 13.0075 66.0082 14.0787C67.2719 13.0075 68.629 12.1352 70.0604 11.4728C72.1655 10.499 74.3806 10.0039 76.6425 10.0039C78.9044 10.0039 81.1181 10.4976 83.2246 11.4714C84.6546 12.1352 86.0131 13.0061 87.2767 14.0773C88.5404 13.0061 89.8975 12.1352 91.3289 11.4714C93.4354 10.4976 95.6491 10.0039 97.9096 10.0039C100.594 10.0039 103.19 10.6924 105.626 12.0502C107.929 13.3339 109.988 15.1594 111.746 17.4732C114.902 21.6331 116.79 26.9971 117.151 32.7479H129.319C130.446 32.7479 131.362 33.6614 131.362 34.786C131.362 35.9107 130.446 36.8227 129.319 36.8227H115.171C114.044 36.8227 113.13 35.9107 113.13 34.786C113.13 29.1518 111.479 23.8769 108.486 19.9324C105.621 16.1565 101.864 14.0787 97.9082 14.0787C95.1362 14.0787 92.4729 15.0868 90.1189 17.0151C93.8424 21.6591 95.9461 28.0148 95.9461 34.786C95.9461 36.9036 95.7564 38.9376 95.3851 40.8317C94.9492 43.0495 94.4515 44.8475 93.863 46.3315C92.8551 48.873 91.1391 50.6354 89.0326 51.2896C87.2726 51.8368 85.3256 51.5516 83.8241 50.5243C82.4766 49.6012 81.7094 48.2558 81.2487 47.3245C79.0625 42.9027 78.6032 38.064 78.6032 34.786C78.6032 28.0161 80.707 21.6591 84.4291 17.0151C82.0765 15.0881 79.4145 14.0787 76.6397 14.0787C73.865 14.0787 71.2044 15.0881 68.8517 17.0165C72.5752 21.6619 74.6762 28.0161 74.6762 34.786C74.6762 38.9705 73.8925 42.9466 72.347 46.599C71.8548 47.7648 71.192 49.091 70.0191 50.0936C68.904 51.0496 67.4795 51.5762 66.0096 51.5762C66.0096 51.5735 66.0069 51.5735 66.0069 51.5735ZM66.0069 19.9982C63.0712 23.8851 61.4212 29.1463 61.4212 34.7819C61.4212 38.3629 62.1143 41.8974 63.4246 45.0039C63.734 45.7363 64.1217 46.5441 64.6553 46.9981C65.0265 47.3163 65.5187 47.4973 66.0069 47.4973C66.495 47.4973 66.9886 47.3149 67.3599 46.9967C67.8893 46.5441 68.2756 45.739 68.5836 45.0107C69.8968 41.9042 70.5897 38.3684 70.5897 34.7819C70.5925 29.1463 68.9411 23.8851 66.0069 19.9982ZM44.7384 19.9982C41.8027 23.8851 40.1514 29.1463 40.1514 34.7833C40.1514 38.3767 40.8444 41.9166 42.1561 45.0176C42.4586 45.7322 42.8368 46.5222 43.3537 46.9748C43.7305 47.3026 44.2324 47.4918 44.7315 47.4946C45.2306 47.5001 45.7339 47.3108 46.1134 46.9844C46.6537 46.5194 47.0305 45.7253 47.355 44.9339C48.6612 41.7671 49.324 38.352 49.324 34.7819C49.324 29.1463 47.6726 23.8851 44.7384 19.9982ZM87.274 19.9968C84.3397 23.8851 82.6884 29.1449 82.6884 34.7819C82.6884 38.8032 83.479 42.6174 84.9145 45.521C85.3242 46.3494 85.712 46.8719 86.1369 47.1613C86.6003 47.4795 87.2589 47.5714 87.8158 47.3986C89.0821 47.0022 89.8109 45.4702 90.0652 44.8297C90.5602 43.5789 90.9893 42.014 91.377 40.0431C91.6987 38.4068 91.8596 36.6376 91.8596 34.7819C91.8596 29.1463 90.2096 23.8851 87.274 19.9968Z" fill="#948979"/>
</g>
<path d="M15.2921 74.1538C13.9685 74.1538 12.7922 73.9475 11.7649 73.5383C10.7358 73.1239 9.86451 72.5241 9.14925 71.7407C8.43399 70.9538 7.88703 69.9885 7.50836 68.8449C7.1332 67.6978 6.94737 66.402 6.94737 64.9559C6.94737 63.4695 7.13846 62.1353 7.52238 60.9549C7.90982 59.7763 8.46204 58.7656 9.1773 57.9263C9.89256 57.0834 10.7498 56.4364 11.7508 55.9888C12.7501 55.5376 13.8756 55.3103 15.1238 55.3103C16.095 55.3103 16.9855 55.4484 17.7955 55.723C18.6036 55.9992 19.3049 56.3874 19.8992 56.8911C20.497 57.3947 20.9598 58.0032 21.2876 58.7167C21.6189 59.4301 21.7855 60.238 21.7855 61.1368L19.4223 61.7383C19.4364 60.7871 19.2418 60.0072 18.8403 59.3951C18.4371 58.7796 17.9042 58.311 17.2415 57.9892C16.5823 57.6675 15.8566 57.5066 15.0677 57.5066C14.3524 57.5066 13.6582 57.65 12.985 57.9333C12.3153 58.2183 11.7245 58.659 11.2109 59.2552C10.6955 59.848 10.2923 60.6087 9.99774 61.5355C9.70673 62.4588 9.56298 63.5709 9.56298 64.8719C9.56298 66.5192 9.8014 67.8586 10.2782 68.8939C10.7551 69.9291 11.4318 70.6897 12.3118 71.1741C13.1954 71.6602 14.2139 71.9015 15.3692 71.9015C16.4912 71.9015 17.3905 71.6969 18.0689 71.286C18.7456 70.8716 19.2558 70.2893 19.5976 69.5374C19.9377 68.7872 20.1271 67.9076 20.1656 66.9004L22.4517 67.3131C22.4324 68.2643 22.2851 69.1527 22.0099 69.978C21.7329 70.8034 21.3051 71.5291 20.7266 72.1533C20.1464 72.7741 19.4083 73.2637 18.5107 73.6222C17.6131 73.9755 16.5403 74.1538 15.2921 74.1538Z" fill="#DFD0B8"/>
<path d="M31.7828 74.1538C30.4259 74.1538 29.2303 73.8618 28.1925 73.2795C27.1546 72.6919 26.3412 71.8421 25.7522 70.7264C25.1631 69.6073 24.8686 68.2416 24.8686 66.6276C24.8686 64.9821 25.1771 63.6129 25.7942 62.5217C26.4113 61.4306 27.2318 60.6122 28.2556 60.0666C29.2829 59.5175 30.4399 59.2413 31.7267 59.2413C33.031 59.2413 34.202 59.5315 35.2399 60.1086C36.2777 60.6822 37.0981 61.525 37.7012 62.6337C38.3078 63.7388 38.6128 65.108 38.6128 66.7395C38.6128 68.3867 38.313 69.7594 37.7152 70.8593C37.1209 71.9558 36.3057 72.7794 35.2679 73.3284C34.2301 73.8775 33.0678 74.1538 31.7828 74.1538ZM31.8669 72.0974C32.3613 72.0974 32.8574 72.0117 33.3535 71.8386C33.8479 71.662 34.302 71.3734 34.7139 70.9713C35.1294 70.5656 35.466 70.0252 35.7237 69.3485C35.9797 68.6735 36.1094 67.8307 36.1094 66.8234C36.1094 65.7987 35.9762 64.9384 35.7097 64.2424C35.4432 63.543 35.0926 62.9834 34.6578 62.5637C34.2266 62.144 33.7462 61.8398 33.2133 61.6474C32.6804 61.4516 32.1562 61.3536 31.6425 61.3536C31.1657 61.3536 30.6783 61.4428 30.184 61.6194C29.6878 61.7925 29.2303 62.0776 28.8095 62.4728C28.3888 62.8645 28.0487 63.3943 27.7928 64.0606C27.535 64.7285 27.4071 65.5644 27.4071 66.5716C27.4071 67.5981 27.535 68.4637 27.7928 69.1666C28.0487 69.8714 28.3923 70.4397 28.8236 70.8733C29.2531 71.3035 29.7352 71.6148 30.2681 71.8106C30.801 72.003 31.334 72.0974 31.8669 72.0974Z" fill="#DFD0B8"/>
<path d="M42.1073 73.7971V59.598H44.6178V73.7971H42.1073ZM43.3485 57.1778C42.777 57.1778 42.3458 57.0589 42.0512 56.8211C41.7602 56.5833 41.6165 56.2371 41.6165 55.7789C41.6165 55.3033 41.7602 54.9465 42.0512 54.7087C42.3458 54.4709 42.777 54.352 43.3485 54.352C43.9376 54.352 44.3758 54.4709 44.6668 54.7087C44.9614 54.9465 45.1086 55.3033 45.1086 55.7789C45.1086 56.2371 44.9614 56.5833 44.6668 56.8211C44.3758 57.0589 43.9376 57.1778 43.3485 57.1778Z" fill="#DFD0B8"/>
<path d="M48.826 73.7971V54.6248H51.3364V73.7971H48.826Z" fill="#DFD0B8"/>
<path d="M70.3118 74.1538C68.9883 74.1538 67.812 73.9475 66.7846 73.5383C65.7556 73.1239 64.8843 72.5241 64.169 71.7407C63.4538 70.9538 62.9068 69.9885 62.5282 68.8449C62.153 67.6978 61.9672 66.402 61.9672 64.9559C61.9672 63.4695 62.1582 62.1353 62.5422 60.9549C62.9296 59.7763 63.4818 58.7656 64.1971 57.9263C64.9123 57.0834 65.7696 56.4364 66.7706 55.9888C67.7699 55.5376 68.8954 55.3103 70.1436 55.3103C71.1148 55.3103 72.0053 55.4484 72.8153 55.723C73.6234 55.9992 74.3247 56.3874 74.919 56.8911C75.5168 57.3947 75.9796 58.0032 76.3074 58.7167C76.6387 59.4301 76.8053 60.238 76.8053 61.1368L74.4421 61.7383C74.4561 60.7871 74.2616 60.0072 73.8601 59.3951C73.4569 58.7796 72.9239 58.311 72.2613 57.9892C71.6021 57.6675 70.8763 57.5066 70.0875 57.5066C69.3722 57.5066 68.678 57.65 68.0048 57.9333C67.3351 58.2183 66.7443 58.659 66.2307 59.2552C65.7153 59.848 65.3121 60.6087 65.0175 61.5355C64.7265 62.4588 64.5828 63.5709 64.5828 64.8719C64.5828 66.5192 64.8212 67.8586 65.298 68.8939C65.7749 69.9291 66.4516 70.6897 67.3316 71.1741C68.2152 71.6602 69.2337 71.9015 70.389 71.9015C71.511 71.9015 72.4103 71.6969 73.0887 71.286C73.7654 70.8716 74.2756 70.2893 74.6174 69.5374C74.9575 68.7872 75.1469 67.9076 75.1854 66.9004L77.4715 67.3131C77.4522 68.2643 77.3049 69.1527 77.0297 69.978C76.7527 70.8034 76.3249 71.5291 75.7464 72.1533C75.1661 72.7741 74.4281 73.2637 73.5305 73.6222C72.6329 73.9755 71.56 74.1538 70.3118 74.1538Z" fill="#DFD0B8"/>
<path d="M86.8025 74.1538C85.4456 74.1538 84.25 73.8618 83.2122 73.2795C82.1744 72.6919 81.361 71.8421 80.7719 70.7264C80.1829 69.6073 79.8884 68.2416 79.8884 66.6276C79.8884 64.9821 80.1969 63.6129 80.814 62.5217C81.4311 61.4306 82.2515 60.6122 83.2753 60.0666C84.3026 59.5175 85.4597 59.2413 86.7464 59.2413C88.0507 59.2413 89.2218 59.5315 90.2596 60.1086C91.2974 60.6822 92.1179 61.525 92.721 62.6337C93.3275 63.7388 93.6326 65.108 93.6326 66.7395C93.6326 68.3867 93.3328 69.7594 92.735 70.8593C92.1407 71.9558 91.3255 72.7794 90.2877 73.3284C89.2498 73.8775 88.0875 74.1538 86.8025 74.1538ZM86.8867 72.0974C87.3811 72.0974 87.8772 72.0117 88.3733 71.8386C88.8677 71.662 89.3217 71.3734 89.7337 70.9713C90.1492 70.5656 90.4858 70.0252 90.7435 69.3485C90.9994 68.6735 91.1292 67.8307 91.1292 66.8234C91.1292 65.7987 90.9959 64.9384 90.7294 64.2424C90.463 63.543 90.1124 62.9834 89.6776 62.5637C89.2463 62.144 88.766 61.8398 88.2331 61.6474C87.7001 61.4516 87.1759 61.3536 86.6623 61.3536C86.1855 61.3536 85.6981 61.4428 85.2037 61.6194C84.7076 61.7925 84.25 62.0776 83.8293 62.4728C83.4086 62.8645 83.0685 63.3943 82.8125 64.0606C82.5548 64.7285 82.4268 65.5644 82.4268 66.5716C82.4268 67.5981 82.5548 68.4637 82.8125 69.1666C83.0685 69.8714 83.4121 70.4397 83.8433 70.8733C84.2728 71.3035 84.7549 71.6148 85.2879 71.8106C85.8208 72.003 86.3537 72.0974 86.8867 72.0974Z" fill="#DFD0B8"/>
<path d="M102.141 74.1538C100.949 74.1538 99.9198 73.839 99.0555 73.2095C98.1947 72.5765 97.5373 71.7022 97.085 70.5865C96.6362 69.4674 96.4118 68.1769 96.4118 66.7115C96.4118 65.2479 96.6257 63.9591 97.057 62.8435C97.4918 61.7243 98.1334 60.85 98.9854 60.2205C99.8409 59.5875 100.873 59.2692 102.085 59.2692C103.095 59.2692 103.924 59.4791 104.574 59.8987C105.228 60.3184 105.747 60.8745 106.131 61.5635C106.518 62.2489 106.804 63.0026 106.986 63.8227H107.456C107.381 63.2771 107.302 62.7071 107.218 62.109C107.137 61.5128 107.074 60.9374 107.029 60.3814C106.981 59.8218 106.958 59.3234 106.958 58.8845V54.6248H109.497L109.469 66.8444L109.497 73.7971H107.211L107.372 69.8661H106.93C106.729 70.7299 106.42 71.4819 106.005 72.1254C105.593 72.7654 105.074 73.2637 104.448 73.6222C103.826 73.9754 103.056 74.1538 102.141 74.1538ZM102.723 71.9575C103.4 71.9575 104.001 71.8019 104.525 71.4888C105.048 71.1776 105.493 70.7684 105.857 70.2648C106.226 69.7612 106.503 69.2138 106.685 68.621C106.867 68.0248 106.958 67.4599 106.958 66.9283V66.5996C106.958 66.2359 106.906 65.8267 106.804 65.3685C106.706 64.9069 106.546 64.4487 106.327 63.9906C106.106 63.5342 105.831 63.1145 105.5 62.7316C105.172 62.3451 104.781 62.0321 104.329 61.7943C103.88 61.5565 103.361 61.4376 102.772 61.4376C101.967 61.4376 101.285 61.6719 100.724 62.137C100.163 62.6039 99.7357 63.2352 99.4412 64.0326C99.1467 64.83 98.9994 65.7428 98.9994 66.7675C98.9994 67.8132 99.1467 68.7242 99.4412 69.5024C99.7357 70.277 100.163 70.8803 100.724 71.314C101.285 71.7442 101.952 71.9575 102.723 71.9575Z" fill="#DFD0B8"/>
<path d="M119.847 74.1538C118.711 74.1538 117.716 73.9859 116.86 73.6502C116.005 73.311 115.286 72.8213 114.707 72.1813C114.132 71.5378 113.692 70.7737 113.389 69.8871C113.084 68.997 112.933 68.0108 112.933 66.9284C112.933 65.8145 113.081 64.7915 113.375 63.8577C113.67 62.9204 114.101 62.1091 114.672 61.4236C115.242 60.7381 115.938 60.2048 116.762 59.8218C117.589 59.4354 118.536 59.2413 119.602 59.2413C120.556 59.2413 121.413 59.4021 122.176 59.7239C122.936 60.0421 123.589 60.5213 124.132 61.1648C124.674 61.8048 125.08 62.6092 125.352 63.5779C125.627 64.5484 125.74 65.6938 125.689 67.0123L114.532 67.0962V65.3895L124.118 65.3126L123.291 66.4597C123.383 65.3266 123.278 64.3858 122.975 63.6339C122.67 62.8837 122.228 62.3171 121.65 61.9342C121.075 61.5477 120.391 61.3536 119.602 61.3536C118.755 61.3536 118.014 61.5757 117.379 62.0181C116.748 62.457 116.257 63.0883 115.907 63.9137C115.559 64.7355 115.388 65.7305 115.388 66.9004C115.388 68.5896 115.768 69.8783 116.531 70.7684C117.291 71.655 118.406 72.0974 119.876 72.0974C120.465 72.0974 120.973 72.0257 121.404 71.8806C121.834 71.7319 122.2 71.5343 122.505 71.286C122.808 71.0395 123.056 70.7457 123.248 70.4047C123.44 70.0655 123.582 69.7035 123.676 69.3205L125.906 69.7892C125.741 70.4659 125.494 71.0744 125.163 71.6148C124.83 72.1568 124.412 72.615 123.908 72.9927C123.403 73.3669 122.81 73.6537 122.133 73.853C121.455 74.0524 120.692 74.1538 119.847 74.1538Z" fill="#DFD0B8"/>
</svg>
