<svg width="40" height="40" viewBox="0 0 40 40" fill="none" xmlns="http://www.w3.org/2000/svg">
<circle cx="20" cy="20" r="20" fill="#D9D9D9"/>
<g clip-path="url(#clip0_18_54)">
<path d="M10.9265 5.63363C11.4481 5.6511 11.4481 5.6511 11.9803 5.66893C12.2448 5.6839 12.5093 5.69887 12.7819 5.7143C14.1676 7.95272 15.2088 10.2949 16.2157 12.7219C16.706 14.0488 16.706 14.0488 17.5146 15.1796C17.6274 14.9235 17.7402 14.6673 17.8564 14.4034C18.3678 13.245 18.8823 12.088 19.3969 10.931C19.5744 10.5278 19.7518 10.1246 19.9347 9.70917C20.1926 9.13099 20.1926 9.13099 20.4557 8.54113C20.6134 8.18514 20.7711 7.82915 20.9336 7.46237C21.3868 6.57479 21.3868 6.57479 22.2472 5.7143C25.2418 5.47664 25.2418 5.47664 26.5497 6.17144C27.2293 7.48817 27.2853 8.59569 26.9799 10.0167C26.1043 11.6879 25.0345 13.2302 23.9951 14.8032C21.0939 19.4191 20.1255 23.1022 20.5679 28.5167C20.5168 29.5739 20.2248 30.2062 19.6658 31.0986C18.3281 31.7675 16.8129 31.8417 15.3634 31.5288C14.6037 30.8919 14.6037 30.8919 14.0726 29.8079C14.0682 28.9267 14.0694 28.0447 14.112 27.1645C14.3151 21.9135 12.4075 18.2592 9.73944 13.8232C9.46952 13.3718 9.1996 12.9204 8.9215 12.4553C8.67189 12.0572 8.42228 11.6591 8.16511 11.2489C7.4986 9.74505 7.48704 8.6337 7.61901 7.00503C8.49755 5.60333 9.34063 5.56468 10.9265 5.63363Z" fill="#30BCEC"/>
<path d="M10.9265 5.63363C11.4481 5.6511 11.4481 5.6511 11.9802 5.66892C12.2448 5.68389 12.5093 5.69887 12.7819 5.7143C14.037 7.84326 15.1403 9.99046 16.1432 12.2486C16.3524 12.6991 16.3524 12.6991 16.5658 13.1587C17.2717 14.7471 17.6712 15.6804 17.0843 17.3308C16.3835 18.3459 16.3835 18.3459 15.5516 19.3745C15.2759 19.7183 15.0003 20.0622 14.7163 20.4165C14.5039 20.676 14.2915 20.9356 14.0726 21.203C12.5194 19.2107 11.3448 17.0334 10.1198 14.8301C9.87935 14.4116 9.63893 13.9931 9.39122 13.562C7.15406 9.52749 7.15406 9.52749 7.61899 7.00502C8.49754 5.60333 9.34062 5.56468 10.9265 5.63363Z" fill="#FEBC42"/>
<path d="M23.9413 5.57983C25.0171 5.61498 25.5911 5.66218 26.5496 6.17142C27.222 7.47419 27.0754 8.56899 26.9799 10.0167C26.4474 11.3065 26.4474 11.3065 25.7076 12.5696C25.4417 13.0258 25.1758 13.4819 24.9018 13.9519C24.6203 14.4192 24.3388 14.8864 24.0489 15.3678C23.6341 16.0862 23.6341 16.0862 23.2111 16.8191C21.6684 19.4264 21.6684 19.4264 20.9565 20.3425C20.5305 20.3425 20.1046 20.3425 19.6658 20.3425C19.054 19.6804 19.054 19.6804 18.4826 18.7829C18.1931 18.3486 18.1931 18.3486 17.8977 17.9056C17.0287 15.6263 18.2322 13.4759 19.1641 11.3814C19.3208 11.0375 19.4774 10.6937 19.6389 10.3394C19.7939 9.98888 19.9489 9.63836 20.1086 9.27723C21.6903 5.75848 21.6903 5.75848 23.9413 5.57983Z" fill="#6DEA83"/>
<path d="M31.2824 23.3542C31.4243 24.0641 31.5663 24.774 31.7126 25.5054C31.0027 25.6474 30.2928 25.7894 29.5614 25.9357C29.9873 26.1575 30.4133 26.3794 30.8521 26.6079C32.1428 27.6567 32.1428 27.6567 32.3848 29.2163C32.305 29.6955 32.2251 30.1746 32.1428 30.6683C30.7171 31.6188 30.2736 31.6256 28.6202 31.5826C28.2326 31.5749 27.8449 31.5671 27.4455 31.5591C27.1499 31.5491 26.8543 31.5391 26.5497 31.5288C26.4077 30.9609 26.2657 30.393 26.1194 29.8079C26.4566 29.7457 26.7939 29.6836 27.1413 29.6196C28.2553 29.4301 28.2553 29.4301 29.1311 28.9474C28.7141 28.69 28.297 28.4327 27.8673 28.1676C26.5497 27.2264 26.5497 27.2264 26.1194 25.9357C27.4483 23.278 28.4067 23.301 31.2824 23.3542Z" fill="#514848"/>
<path d="M23.538 23.7845C25.2052 24.1609 25.2052 24.1609 25.6892 24.645C25.7557 25.8251 25.7889 26.9869 25.7968 28.1676C25.8056 28.4929 25.8145 28.8181 25.8237 29.1533C25.8384 31.2792 25.5289 32.6754 24.3985 34.5405C23.2626 34.5405 22.1268 34.5405 20.9565 34.5405C20.8146 33.9726 20.6726 33.4047 20.5263 32.8196C20.8047 32.748 21.0831 32.6765 21.37 32.6028C21.6595 32.3904 21.949 32.1779 22.2473 31.9591C22.4253 30.7733 22.5078 29.732 22.5162 28.544C22.5748 25.2293 22.5748 25.2293 23.538 23.7845Z" fill="#514848"/>
<path d="M24.2102 20.7459C24.7293 20.7592 24.7293 20.7592 25.2589 20.7728C25.4234 21.4853 25.5661 22.2031 25.6892 22.924C25.2589 23.3542 25.2589 23.3542 24.1564 23.3811C23.6373 23.3678 23.6373 23.3678 23.1077 23.3542C22.9433 22.6417 22.8006 21.9239 22.6775 21.203C23.1077 20.7728 23.1077 20.7728 24.2102 20.7459Z" fill="#514848"/>
</g>
<defs>
<clipPath id="clip0_18_54">
<rect width="24.5238" height="28.8262" fill="white" transform="translate(7.61902 5.71429)"/>
</clipPath>
</defs>
</svg>
